<svg id="Layer_1" data-name="Layer 1" xmlns="http://www.w3.org/2000/svg" viewBox="0 0 329.4 127.89"><defs><style>.cls-1{fill:#ed1c24;}.cls-2{fill:#f26522;}.cls-3{fill:#ffde17;}.cls-4{fill:#00a14b;}.cls-5{fill:#21409a;}.cls-6{fill:#7f3f98;}</style></defs><title>festivibexz_logo</title><text x="-153.69" y="-230.85"></text><path class="cls-1" d="M163.14,263.58h34.6v6h-34.6a3.09,3.09,0,0,0-3.15,3v3h37.75v6H160v12h-6.3v-21A9.23,9.23,0,0,1,163.14,263.58Z" transform="translate(-153.69 -230.85)"/><path class="cls-2" d="M202.24,284.62v-6a9.25,9.25,0,0,1,9.45-9h22v6h-22a3,3,0,0,0-3.1,3h25.15v6H208.59a3.08,3.08,0,0,0,3.1,3h22v6h-22A9.22,9.22,0,0,1,202.24,284.62Z" transform="translate(-153.69 -230.85)"/><path class="cls-3" d="M269.74,269.62v6H246.12a1.48,1.48,0,1,0,0,3h15.75a7.51,7.51,0,1,1,0,15H238.24v-6h23.62a1.56,1.56,0,0,0,1.57-1.5,1.53,1.53,0,0,0-1.57-1.5H246.12a7.51,7.51,0,1,1,0-15Z" transform="translate(-153.69 -230.85)"/><path class="cls-4" d="M290,269.62h15.75v6H290v9a3.09,3.09,0,0,0,3.15,3h12.6v6h-12.6a9.24,9.24,0,0,1-9.49-9v-9h-9.4v-6h9.4v-6H290Z" transform="translate(-153.69 -230.85)"/><path class="cls-5" d="M316.58,293.57h-6.34v-24h6.34Z" transform="translate(-153.69 -230.85)"/><path class="cls-6" d="M338.19,290.66l-17.1-27.08h7.38l15.12,24h2.7l15.12-24h7.33l-17.05,27.08a6.4,6.4,0,0,1-5.4,2.91h-2.7A6.4,6.4,0,0,1,338.19,290.66Z" transform="translate(-153.69 -230.85)"/><path class="cls-5" d="M375.09,293.57h-6.34v-24h6.34Z" transform="translate(-153.69 -230.85)"/><path class="cls-4" d="M385.89,263.62v6h15.75a9.2,9.2,0,0,1,9.45,9v6a9.17,9.17,0,0,1-9.45,9h-22V263.62Zm0,12v12h15.75a3.13,3.13,0,0,0,3.2-3v-6a3.09,3.09,0,0,0-3.2-3Z" transform="translate(-153.69 -230.85)"/><path class="cls-3" d="M415.58,284.62v-6a9.25,9.25,0,0,1,9.45-9h22v6H425a3,3,0,0,0-3.1,3h25.15v6H421.93a3.07,3.07,0,0,0,3.1,3h22v6H425A9.22,9.22,0,0,1,415.58,284.62Z" transform="translate(-153.69 -230.85)"/><path class="cls-2" d="M480.25,278.83l-18.49,8.78h21.33v6H456.67a5,5,0,0,1-5.08-4.84,4.86,4.86,0,0,1,2.88-4.37l18.4-8.74H451.58v-6H478a5,5,0,0,1,5.13,4.84A4.84,4.84,0,0,1,480.25,278.83Z" transform="translate(-153.69 -230.85)"/></svg>